# xmcd CD database file
#
# Track frame offsets:
#	150
#	25815
#	43837
#	66297
#	109685
#	140407
#	167085
#	191990
#	218217
#	241047
#
# Disc length: 3474 seconds
#
# Revision: 0
# Processed by: cddbd v1.5.2PL0 Copyright (c) Steve Scherf et al.
# Submitted via: CDex 1.51
#
DISCID=8f0d900a
DTITLE=Joe Gil - Breath Deep And Enter Carefully
DYEAR=2007
DGENRE=Jazz
TTITLE0=Centrifuge Of Energy
TTITLE1=Monk Strut
TTITLE2=Mr.Mambo
TTITLE3=Meditation
TTITLE4=Shut And Go To Sleep
TTITLE5=Trainwreck
TTITLE6=My Lips Move But You Don't Hear What I Say
TTITLE7=The Battles Never End
TTITLE8=It's Time For YOu To Go
TTITLE9=No Title Yet
EXTD=YEAR: 2007
EXTT0=
EXTT1=
EXTT2=
EXTT3=
EXTT4=
EXTT5=
EXTT6=
EXTT7=
EXTT8=
EXTT9=
PLAYORDER=
